<svg version="1.1" id="Layer_1" xmlns="http://www.w3.org/2000/svg" xmlns:xlink="http://www.w3.org/1999/xlink" x="0px" y="0px"
	 width="100%" viewBox="0 0 416 416" enable-background="new 0 0 416 416" xml:space="preserve">
<path fill="#FEFFFF" opacity="1.000000" stroke="none" 
	d="
M0.999999,203.000000 
	C1.000000,135.740738 1.000000,68.481468 1.000000,1.000000 
	C66.020729,1.000000 131.041702,1.000000 196.318573,1.364844 
	C190.712753,2.476434 184.851044,3.223180 178.571289,3.940191 
	C169.359680,5.896204 160.566116,7.881951 151.383972,9.871863 
	C142.975311,12.831063 134.955200,15.786098 126.567566,18.811171 
	C117.433441,23.571476 108.666862,28.261745 99.560867,33.017029 
	C93.728561,37.010159 88.235687,40.938271 82.403244,44.902382 
	C76.712334,49.626923 71.360977,54.315468 65.684059,59.092735 
	C59.519913,65.766068 53.681335,72.350670 47.538551,79.077942 
	C42.128513,86.754532 37.022682,94.288452 31.635406,102.024139 
	C27.224331,110.483353 23.094700,118.740799 18.697926,127.235275 
	C15.274487,136.976807 12.118196,146.481308 8.736944,156.281433 
	C6.469103,169.342651 4.426223,182.108276 2.299887,195.255844 
	C1.810953,198.091873 1.405475,200.545929 0.999999,203.000000 
z"/>
<path fill="#FEFEFE" opacity="1.000000" stroke="none" 
	d="
M193.000000,417.000000 
	C129.071121,417.000000 65.142235,417.000000 1.000000,417.000000 
	C1.000000,349.979248 1.000000,282.958282 1.387015,215.651886 
	C2.139196,219.258743 2.504363,223.151047 2.821074,227.486267 
	C4.178133,236.619431 5.583650,245.309647 6.958975,254.406372 
	C10.237662,265.226776 13.546540,275.640717 16.885006,286.432312 
	C23.009932,302.787567 31.292191,317.539917 41.829147,331.422028 
	C51.263706,344.612457 61.768185,356.374146 74.365616,366.663025 
	C86.359970,375.004181 98.156906,383.053040 110.147003,391.388245 
	C131.118057,402.788544 152.975250,410.707245 176.376602,414.127563 
	C181.938843,414.940582 187.459961,416.035034 193.000000,417.000000 
z"/>
<path fill="#FEFEFE" opacity="1.000000" stroke="none" 
	d="
M417.000000,229.000000 
	C417.000000,291.594666 417.000000,354.189301 417.000000,417.000000 
	C352.979279,417.000000 288.958282,417.000000 224.638428,416.611206 
	C234.075226,414.827850 243.922653,413.958466 253.520691,411.916718 
	C268.269501,408.779236 282.714966,404.460724 296.424744,397.081909 
	C308.134918,390.474548 319.467651,383.893494 331.106384,377.225891 
	C340.159119,369.514801 348.905792,361.890289 357.919434,354.104919 
	C364.533905,346.323578 370.881439,338.703094 377.519287,330.922485 
	C383.702454,320.885925 389.595306,311.009491 395.710419,300.886414 
	C399.580078,291.426849 403.227478,282.213928 407.065552,272.677124 
	C409.215027,264.234070 411.173828,256.114899 413.358337,247.672882 
	C414.058258,242.779816 414.405304,238.190872 415.075012,233.649475 
	C415.312286,232.040024 416.335541,230.546463 417.000000,229.000000 
z"/>
<path fill="#FEFFFF" opacity="1.000000" stroke="none" 
	d="
M222.000000,1.000000 
	C286.925873,1.000000 351.851746,1.000000 417.000000,1.000000 
	C417.000000,63.687386 417.000000,126.375038 416.634766,189.349640 
	C415.202484,183.089539 414.135468,176.542480 413.103821,169.577988 
	C410.926544,160.705627 408.713928,152.250717 406.407288,143.420044 
	C403.589966,136.344208 400.866730,129.644135 398.104736,122.581940 
	C393.845093,114.519783 389.624207,106.819756 385.293762,98.826279 
	C381.173798,92.920029 377.163391,87.307228 373.058838,81.377892 
	C368.746124,76.320534 364.527557,71.579712 360.188171,66.519188 
	C353.730865,60.401028 347.394440,54.602558 340.911591,48.509262 
	C334.558441,43.782776 328.351654,39.351116 321.948639,34.639099 
	C315.504364,30.893499 309.256378,27.428253 302.785156,23.691818 
	C296.738922,20.929260 290.915924,18.437889 284.847046,15.684534 
	C277.503387,13.218925 270.405609,11.015300 263.012329,8.568276 
	C255.586288,6.847489 248.480835,5.231544 241.317688,3.933986 
	C234.911499,2.773545 228.441727,1.964237 222.000000,1.000000 
z"/>
<path fill="#01496A" opacity="1.000000" stroke="none" 
	d="
M296.047302,397.108276 
	C282.714966,404.460724 268.269501,408.779236 253.520691,411.916718 
	C243.922653,413.958466 234.075226,414.827850 224.169769,416.611206 
	C221.629440,417.000000 219.258896,417.000000 216.165756,416.693207 
	C211.295456,416.590942 207.147720,416.795471 203.000000,417.000000 
	C199.969406,417.000000 196.938812,417.000000 193.454102,417.000000 
	C187.459961,416.035034 181.938843,414.940582 176.376602,414.127563 
	C152.975250,410.707245 131.118057,402.788544 110.317039,391.057159 
	C111.623459,390.033661 113.069176,389.063568 114.264420,389.309662 
	C125.051636,391.531250 135.713333,394.473328 146.570160,396.220032 
	C163.165176,398.889893 179.838303,402.114441 196.563644,402.711334 
	C228.500854,403.851044 260.546265,404.026642 291.969025,396.252625 
	C293.183533,395.952118 294.681458,396.797058 296.047302,397.108276 
z"/>
<path fill="#0F6988" opacity="1.000000" stroke="none" 
	d="
M2.869531,227.043350 
	C2.504363,223.151047 2.139196,219.258743 1.387015,215.183228 
	C1.000000,211.307098 1.000000,207.614182 0.999999,203.460632 
	C1.405475,200.545929 1.810953,198.091873 2.722528,195.296951 
	C5.240345,196.163162 7.588505,197.039932 9.179240,198.660278 
	C11.200212,200.718887 12.326656,203.652969 14.339095,205.723251 
	C18.103649,209.596054 22.865465,212.648788 26.018656,216.923294 
	C28.989088,220.950058 32.103283,222.687119 36.905411,222.440460 
	C38.960430,234.249863 40.945526,245.626007 42.561546,256.995972 
	C40.068588,255.816696 37.711376,254.929749 35.861103,253.421082 
	C27.746775,246.804749 19.828939,239.947739 11.731009,233.310806 
	C8.939820,231.023209 5.832463,229.121384 2.869531,227.043350 
z"/>
<path fill="#0F6988" opacity="1.000000" stroke="none" 
	d="
M417.000000,228.555817 
	C416.335541,230.546463 415.312286,232.040024 415.075012,233.649475 
	C414.405304,238.190872 414.058258,242.779816 412.975281,247.678009 
	C410.582489,248.801300 408.625916,249.345490 407.043121,250.433426 
	C398.088348,256.588440 389.334686,263.043152 380.263062,269.016998 
	C377.344299,270.939056 373.668060,271.710815 370.396301,272.662445 
	C373.233917,263.540771 376.013580,254.765472 379.169861,245.964111 
	C383.398529,244.087433 387.618683,242.740814 391.011963,240.262177 
	C395.538818,236.955505 399.348022,232.682419 403.609589,228.990875 
	C406.520844,226.469070 409.586700,224.095978 412.775635,221.940720 
	C413.887695,221.189102 415.575256,221.288971 417.000000,221.000000 
	C417.000000,223.370560 417.000000,225.741104 417.000000,228.555817 
z"/>
<path fill="#147191" opacity="1.000000" stroke="none" 
	d="
M413.068481,169.995438 
	C414.135468,176.542480 415.202484,183.089539 416.634766,189.818298 
	C417.000000,191.714355 417.000000,193.428711 416.630585,195.576324 
	C415.492432,196.249130 414.503052,196.261978 413.988556,196.762726 
	C407.782715,202.802353 401.885986,209.184631 395.405151,214.907410 
	C391.401062,218.443100 386.535706,221.003418 382.001282,223.535492 
	C382.059174,215.049637 382.172729,207.029892 382.613861,198.956146 
	C384.635315,197.390350 386.389221,195.939987 388.011780,194.355179 
	C392.736969,189.739975 397.382629,185.043274 402.111664,180.432053 
	C405.722717,176.910950 409.413300,173.471329 413.068481,169.995438 
z"/>
<path fill="#116D8E" opacity="1.000000" stroke="none" 
	d="
M382.056976,224.001587 
	C386.535706,221.003418 391.401062,218.443100 395.405151,214.907410 
	C401.885986,209.184631 407.782715,202.802353 413.988556,196.762726 
	C414.503052,196.261978 415.492432,196.249130 416.630585,196.004791 
	C417.000000,204.020905 417.000000,212.041809 417.000000,220.531357 
	C415.575256,221.288971 413.887695,221.189102 412.775635,221.940720 
	C409.586700,224.095978 406.520844,226.469070 403.609589,228.990875 
	C399.348022,232.682419 395.538818,236.955505 391.011963,240.262177 
	C387.618683,242.740814 383.398529,244.087433 379.150879,245.537903 
	C379.855835,238.092361 380.956390,231.046967 382.056976,224.001587 
z"/>
<path fill="#35BBD7" opacity="1.000000" stroke="none" 
	d="
M221.531357,1.000000 
	C228.441727,1.964237 234.911499,2.773545 241.317688,3.933986 
	C248.480835,5.231544 255.586288,6.847489 262.662567,8.752684 
	C262.073547,11.093060 261.538788,13.005630 260.651367,14.795126 
	C258.571198,14.407140 256.843719,14.142229 254.837372,13.628385 
	C251.350098,12.631883 248.141678,11.884313 244.711548,11.100642 
	C244.489822,11.064541 244.040817,11.080712 243.673615,11.038128 
	C242.568161,10.959659 241.829880,10.923773 240.780670,10.642488 
	C229.734756,9.589907 219.004791,8.235415 208.263351,8.137316 
	C198.515411,8.048289 188.754974,9.327218 178.999756,9.572386 
	C178.996078,7.417786 178.992691,5.693856 178.989319,3.969926 
	C184.851044,3.223180 190.712753,2.476434 196.787231,1.364844 
	C205.020905,1.000000 213.041809,1.000000 221.531357,1.000000 
z"/>
<path fill="#1A7B9A" opacity="1.000000" stroke="none" 
	d="
M203.463181,417.000000 
	C207.147720,416.795471 211.295456,416.590942 215.721588,416.693207 
	C211.975449,417.000000 207.950912,417.000000 203.463181,417.000000 
z"/>
<path fill="#147191" opacity="1.000000" stroke="none" 
	d="
M36.835484,222.007172 
	C32.103283,222.687119 28.989088,220.950058 26.018656,216.923294 
	C22.865465,212.648788 18.103649,209.596054 14.339095,205.723251 
	C12.326656,203.652969 11.200212,200.718887 9.179240,198.660278 
	C7.588505,197.039932 5.240345,196.163162 2.805983,194.914993 
	C4.426223,182.108276 6.469103,169.342651 9.105742,156.289154 
	C12.078278,157.891495 14.844485,159.455063 16.764339,161.732193 
	C22.909418,169.020828 28.700634,176.606979 34.757198,183.972412 
	C35.347900,184.690765 36.828381,184.677444 37.942059,185.437622 
	C37.604012,197.916718 37.219749,209.961945 36.835484,222.007172 
z"/>
<path fill="#177998" opacity="1.000000" stroke="none" 
	d="
M37.895840,185.003769 
	C36.828381,184.677444 35.347900,184.690765 34.757198,183.972412 
	C28.700634,176.606979 22.909418,169.020828 16.764339,161.732193 
	C14.844485,159.455063 12.078278,157.891495 9.330702,155.993546 
	C12.118196,146.481308 15.274487,136.976807 19.039318,127.282700 
	C23.418880,132.035828 27.059507,137.085358 30.996338,141.892303 
	C35.226860,147.057846 39.735489,151.995651 44.118587,157.431091 
	C42.041553,166.887497 39.968697,175.945633 37.895840,185.003769 
z"/>
<path fill="#1B87A6" opacity="1.000000" stroke="none" 
	d="
M31.916849,101.822365 
	C37.022682,94.288452 42.128513,86.754532 47.903442,79.129272 
	C51.425148,83.700142 54.123718,88.465919 57.170551,92.997536 
	C60.732090,98.294701 61.135746,106.006630 68.527733,108.620010 
	C63.679611,116.656746 58.990887,124.373116 53.967712,131.954315 
	C49.586327,127.462830 45.522610,123.121841 41.518150,118.726845 
	C41.112808,118.281982 41.160980,117.455132 40.836136,116.900818 
	C37.883606,111.862610 34.894939,106.845589 31.916849,101.822365 
z"/>
<path fill="#19809E" opacity="1.000000" stroke="none" 
	d="
M31.635403,102.024139 
	C34.894939,106.845589 37.883606,111.862610 40.836136,116.900818 
	C41.160980,117.455132 41.112808,118.281982 41.518150,118.726845 
	C45.522610,123.121841 49.586327,127.462830 53.880089,132.314636 
	C50.792202,140.884384 47.457481,148.958603 44.122761,157.032822 
	C39.735489,151.995651 35.226860,147.057846 30.996338,141.892303 
	C27.059507,137.085358 23.418880,132.035828 19.306465,127.045662 
	C23.094700,118.740799 27.224331,110.483353 31.635403,102.024139 
z"/>
<path fill="#208FAD" opacity="1.000000" stroke="none" 
	d="
M68.687134,108.299660 
	C61.135746,106.006630 60.732090,98.294701 57.170551,92.997536 
	C54.123718,88.465919 51.425148,83.700142 48.207649,78.986603 
	C53.681335,72.350670 59.519913,65.766068 66.035667,59.151482 
	C67.491585,60.311707 68.441833,61.424438 69.020248,62.705116 
	C71.994293,69.289978 74.747070,75.977608 77.841782,82.503845 
	C79.229919,85.431198 81.235802,88.065613 82.815094,91.139977 
	C78.008255,97.064545 73.347694,102.682098 68.687134,108.299660 
z"/>
<path fill="#28A2C0" opacity="1.000000" stroke="none" 
	d="
M99.900284,32.952011 
	C108.666862,28.261745 117.433441,23.571476 126.590324,19.217175 
	C127.327263,21.377747 127.673897,23.202354 127.861687,25.266167 
	C127.138161,26.004177 126.573479,26.502985 125.650436,27.035244 
	C122.528664,28.712589 119.765236,30.356482 116.646774,32.035103 
	C114.887398,32.796509 113.483055,33.523193 111.071091,34.771263 
	C113.273537,36.267029 114.557457,37.384731 116.036736,38.096321 
	C120.046761,40.025303 124.412483,41.356632 128.118439,43.733665 
	C131.432785,45.859516 134.055756,49.063267 136.692566,51.996193 
	C128.616791,56.516590 120.832207,60.832214 113.003868,64.778206 
	C111.544014,61.406273 109.921272,58.481831 108.754646,55.385529 
	C106.291748,48.848804 99.943649,43.664925 101.828583,35.540550 
	C101.985718,34.863285 100.579926,33.823410 99.900284,32.952011 
z"/>
<path fill="#2295B3" opacity="1.000000" stroke="none" 
	d="
M82.961372,90.832962 
	C81.235802,88.065613 79.229919,85.431198 77.841782,82.503845 
	C74.747070,75.977608 71.994293,69.289978 69.020248,62.705116 
	C68.441833,61.424438 67.491585,60.311707 66.361237,59.062759 
	C71.360977,54.315468 76.712334,49.626923 82.736359,45.064461 
	C84.298927,46.730694 85.304382,48.216423 86.059464,49.820038 
	C90.182449,58.576218 94.243889,67.361382 98.158051,76.435310 
	C92.980194,81.433678 87.970779,86.133316 82.961372,90.832962 
z"/>
<path fill="#279BB9" opacity="1.000000" stroke="none" 
	d="
M98.326485,76.136581 
	C94.243889,67.361382 90.182449,58.576218 86.059464,49.820038 
	C85.304382,48.216423 84.298927,46.730694 83.075928,45.028465 
	C88.235687,40.938271 93.728561,37.010159 99.560867,33.017029 
	C100.579926,33.823410 101.985718,34.863285 101.828583,35.540550 
	C99.943649,43.664925 106.291748,48.848804 108.754646,55.385529 
	C109.921272,58.481831 111.544014,61.406273 112.824577,65.055603 
	C107.901527,69.180611 103.114006,72.658592 98.326485,76.136581 
z"/>
<path fill="#2DACC9" opacity="1.000000" stroke="none" 
	d="
M128.020523,25.026962 
	C127.673897,23.202354 127.327263,21.377747 126.957870,19.147137 
	C134.955200,15.786098 142.975311,12.831063 151.727448,10.053507 
	C152.967117,12.131611 153.474731,14.032236 153.628662,15.963781 
	C151.823959,16.652330 150.372925,17.309961 148.539673,17.976337 
	C145.081909,19.311052 142.006378,20.637020 138.566254,21.969875 
	C136.803452,22.327608 135.405258,22.678457 133.681366,23.163124 
	C131.577286,23.873617 129.798904,24.450289 128.020523,25.026962 
z"/>
<path fill="#36B3CF" opacity="1.000000" stroke="none" 
	d="
M153.982361,15.932863 
	C153.474731,14.032236 152.967117,12.131611 152.116013,10.049341 
	C160.566116,7.881951 169.359680,5.896204 178.571289,3.940191 
	C178.992691,5.693856 178.996078,7.417786 178.940262,9.795403 
	C178.881073,10.449089 178.735352,10.887156 178.313538,10.884296 
	C174.566940,11.552440 171.242172,12.223442 167.505920,12.908009 
	C163.740173,13.643234 160.385925,14.364897 156.709747,15.083646 
	C155.586014,15.364776 154.784195,15.648820 153.982361,15.932863 
z"/>
<path fill="#055070" opacity="1.000000" stroke="none" 
	d="
M357.652496,354.265778 
	C348.905792,361.890289 340.159119,369.514801 330.635132,377.139008 
	C328.220428,377.272186 326.530945,377.191071 324.953979,377.573792 
	C314.286652,380.162659 303.648102,382.870056 292.989594,385.495667 
	C288.044373,386.713867 283.113586,388.052307 278.105774,388.937378 
	C273.241272,389.797058 268.285919,390.140900 263.371643,390.721222 
	C258.021362,391.352966 252.678131,392.474091 247.321732,392.538239 
	C234.877563,392.687317 222.427582,392.303284 209.979462,392.187622 
	C204.398117,392.135742 198.782120,392.603333 193.241562,392.132446 
	C185.154312,391.445099 177.026718,391.481445 169.021973,389.184235 
	C162.756775,387.386261 155.975754,387.474609 149.513275,386.252319 
	C141.754562,384.784912 134.031525,383.038879 126.399643,381.012146 
	C115.247650,378.050598 104.196632,374.710236 93.090622,371.573669 
	C86.795464,369.795776 80.476463,368.102295 74.168213,366.370789 
	C61.768185,356.374146 51.263706,344.612457 42.220024,331.401276 
	C44.160480,331.701141 45.846714,332.288422 47.465813,333.023590 
	C50.575130,334.435394 53.595467,336.053009 56.743736,337.367218 
	C63.866116,340.340454 71.308136,342.673035 78.124832,346.218506 
	C84.972054,349.779816 91.193909,354.423431 99.589165,353.195557 
	C100.784554,353.020721 102.490829,354.118408 103.478477,355.108246 
	C109.379898,361.022827 117.050613,358.908966 124.397583,359.915039 
	C136.982025,365.064178 149.175751,370.243896 161.484589,375.133820 
	C162.875397,375.686340 164.915466,374.604553 166.889359,374.670044 
	C177.542191,376.371796 187.929886,378.370453 198.385345,378.831421 
	C213.149765,379.482391 227.969040,379.197144 242.753891,378.847961 
	C246.231644,378.765808 249.665588,376.827881 253.496216,375.829865 
	C254.894119,375.868317 255.915512,375.820618 257.169678,376.093109 
	C263.429840,376.038605 269.581635,376.301483 275.458588,375.155365 
	C287.384460,372.829498 299.196594,369.880280 310.987396,366.916687 
	C318.331879,365.070648 325.522552,362.621246 332.834839,360.636383 
	C341.076599,358.399292 349.377380,356.379883 357.652496,354.265778 
z"/>
<path fill="#024C6D" opacity="1.000000" stroke="none" 
	d="
M74.365616,366.663055 
	C80.476463,368.102295 86.795464,369.795776 93.090622,371.573669 
	C104.196632,374.710236 115.247650,378.050598 126.399643,381.012146 
	C134.031525,383.038879 141.754562,384.784912 149.513275,386.252319 
	C155.975754,387.474609 162.756775,387.386261 169.021973,389.184235 
	C177.026718,391.481445 185.154312,391.445099 193.241562,392.132446 
	C198.782120,392.603333 204.398117,392.135742 209.979462,392.187622 
	C222.427582,392.303284 234.877563,392.687317 247.321732,392.538239 
	C252.678131,392.474091 258.021362,391.352966 263.371643,390.721222 
	C268.285919,390.140900 273.241272,389.797058 278.105774,388.937378 
	C283.113586,388.052307 288.044373,386.713867 292.989594,385.495667 
	C303.648102,382.870056 314.286652,380.162659 324.953979,377.573792 
	C326.530945,377.191071 328.220428,377.272186 330.329102,377.225586 
	C319.467651,383.893494 308.134918,390.474548 296.424744,397.081909 
	C294.681458,396.797058 293.183533,395.952118 291.969025,396.252625 
	C260.546265,404.026642 228.500854,403.851044 196.563644,402.711334 
	C179.838303,402.114441 163.165176,398.889893 146.570160,396.220032 
	C135.713333,394.473328 125.051636,391.531250 114.264420,389.309662 
	C113.069176,389.063568 111.623459,390.033661 110.123886,390.770782 
	C98.156906,383.053040 86.359970,375.004181 74.365616,366.663055 
z"/>
<path fill="#085778" opacity="1.000000" stroke="none" 
	d="
M124.040863,359.860016 
	C117.050613,358.908966 109.379898,361.022827 103.478477,355.108246 
	C102.490829,354.118408 100.784554,353.020721 99.589165,353.195557 
	C91.193909,354.423431 84.972054,349.779816 78.124832,346.218506 
	C71.308136,342.673035 63.866116,340.340454 56.743736,337.367218 
	C53.595467,336.053009 50.575130,334.435394 47.465813,333.023590 
	C45.846714,332.288422 44.160480,331.701141 42.113701,331.067810 
	C31.292191,317.539917 23.009932,302.787567 17.198355,286.305908 
	C18.877054,286.256989 20.431959,286.462158 21.628149,287.227783 
	C23.279324,288.284607 24.523178,289.980896 26.179510,291.026062 
	C34.426811,296.230225 42.540550,301.704559 51.116009,306.311890 
	C58.148823,310.090363 65.763580,312.785645 73.412430,316.117157 
	C77.640648,320.740265 81.462318,325.314789 85.534935,329.653778 
	C96.822243,341.679443 110.144104,351.143585 124.040863,359.860016 
z"/>
<path fill="#0B5E7E" opacity="1.000000" stroke="none" 
	d="
M73.120392,315.961090 
	C65.763580,312.785645 58.148823,310.090363 51.116009,306.311890 
	C42.540550,301.704559 34.426811,296.230225 26.179510,291.026062 
	C24.523178,289.980896 23.279324,288.284607 21.628149,287.227783 
	C20.431959,286.462158 18.877054,286.256989 17.168766,285.928253 
	C13.546540,275.640717 10.237662,265.226776 7.334470,254.411270 
	C9.779643,255.001663 12.023096,255.715668 13.822042,257.035522 
	C20.359085,261.831604 26.569477,267.089111 33.242641,271.678864 
	C39.656170,276.089996 46.490723,279.888947 53.413326,284.162231 
	C60.164383,294.898743 66.642387,305.429932 73.120392,315.961090 
z"/>
<path fill="#0D6383" opacity="1.000000" stroke="none" 
	d="
M53.140274,283.956909 
	C46.490723,279.888947 39.656170,276.089996 33.242641,271.678864 
	C26.569477,267.089111 20.359085,261.831604 13.822042,257.035522 
	C12.023096,255.715668 9.779643,255.001663 7.364661,254.004776 
	C5.583650,245.309647 4.178133,236.619431 2.821075,227.486267 
	C5.832463,229.121384 8.939820,231.023209 11.731009,233.310806 
	C19.828939,239.947739 27.746775,246.804749 35.861103,253.421082 
	C37.711376,254.929749 40.068588,255.816696 42.750809,257.319885 
	C46.586193,266.418915 49.863235,275.187927 53.140274,283.956909 
z"/>
<path fill="#085879" opacity="1.000000" stroke="none" 
	d="
M395.488159,301.133026 
	C389.595306,311.009491 383.702454,320.885925 377.100891,330.899841 
	C373.833893,331.946716 371.207458,332.703583 368.736206,333.807739 
	C366.174622,334.952301 363.888763,336.793243 361.265503,337.707458 
	C346.967010,342.690399 332.675751,347.723145 318.205353,352.162964 
	C314.732391,353.228546 310.573120,355.512848 306.968170,352.063232 
	C317.180298,343.238495 327.174805,334.640045 337.571777,326.031250 
	C340.063599,325.615112 342.340942,325.612000 344.211884,324.738434 
	C356.749756,318.884644 369.171936,312.783417 381.696075,306.899536 
	C386.201965,304.782654 390.885620,303.044220 395.488159,301.133026 
z"/>
<path fill="#065474" opacity="1.000000" stroke="none" 
	d="
M306.750549,352.289581 
	C310.573120,355.512848 314.732391,353.228546 318.205353,352.162964 
	C332.675751,347.723145 346.967010,342.690399 361.265503,337.707458 
	C363.888763,336.793243 366.174622,334.952301 368.736206,333.807739 
	C371.207458,332.703583 373.833893,331.946716 376.810577,331.059937 
	C370.881439,338.703094 364.533905,346.323578 357.919434,354.104919 
	C349.377380,356.379883 341.076599,358.399292 332.834839,360.636383 
	C325.522552,362.621246 318.331879,365.070648 310.987396,366.916687 
	C299.196594,369.880280 287.384460,372.829498 275.458588,375.155365 
	C269.581635,376.301483 263.429840,376.038605 257.435791,375.853760 
	C275.155304,370.323090 291.361938,362.182526 306.750549,352.289581 
z"/>
<path fill="#0B5E7E" opacity="1.000000" stroke="none" 
	d="
M395.710419,300.886414 
	C390.885620,303.044220 386.201965,304.782654 381.696075,306.899536 
	C369.171936,312.783417 356.749756,318.884644 344.211884,324.738434 
	C342.340942,325.612000 340.063599,325.615112 337.692261,325.725281 
	C344.539917,315.930328 351.669586,306.431000 359.187683,296.947113 
	C365.060394,294.760956 370.814697,293.052734 375.962219,290.235748 
	C382.754639,286.518677 388.952057,281.729065 395.640991,277.802094 
	C399.124512,275.756958 403.113953,274.573608 406.874878,273.001007 
	C403.227478,282.213928 399.580078,291.426849 395.710419,300.886414 
z"/>
<path fill="#0D6383" opacity="1.000000" stroke="none" 
	d="
M407.065552,272.677124 
	C403.113953,274.573608 399.124512,275.756958 395.640991,277.802094 
	C388.952057,281.729065 382.754639,286.518677 375.962219,290.235748 
	C370.814697,293.052734 365.060394,294.760956 359.258362,296.593750 
	C362.739868,288.486237 366.539124,280.747498 370.338348,273.008789 
	C373.668060,271.710815 377.344299,270.939056 380.263062,269.016998 
	C389.334686,263.043152 398.088348,256.588440 407.043121,250.433426 
	C408.625916,249.345490 410.582489,248.801300 412.749573,248.000885 
	C411.173828,256.114899 409.215027,264.234070 407.065552,272.677124 
z"/>
<path fill="#1A7B9A" opacity="1.000000" stroke="none" 
	d="
M413.103821,169.577988 
	C409.413300,173.471329 405.722717,176.910950 402.111664,180.432053 
	C397.382629,185.043274 392.736969,189.739975 388.011780,194.355179 
	C386.389221,195.939987 384.635315,197.390350 382.494232,198.527954 
	C380.803131,189.103439 379.559235,180.053101 378.666656,170.995270 
	C380.852234,169.984360 383.092743,169.360687 384.448517,167.910080 
	C389.598602,162.399689 394.417664,156.581589 399.454254,150.962601 
	C401.688110,148.470428 404.145477,146.178589 406.501343,143.795807 
	C408.713928,152.250717 410.926544,160.705627 413.103821,169.577988 
z"/>
<path fill="#2398B6" opacity="1.000000" stroke="none" 
	d="
M341.057983,48.804092 
	C347.394440,54.602558 353.730865,60.401028 359.863831,66.725243 
	C357.280792,72.486908 355.368774,78.008537 352.391846,82.879356 
	C349.338165,87.875832 348.219543,94.910095 340.442871,95.932220 
	C334.824951,90.327660 329.491028,84.877304 324.509033,79.255722 
	C332.778381,70.338135 337.508484,59.886864 341.057983,48.804092 
z"/>
<path fill="#19809E" opacity="1.000000" stroke="none" 
	d="
M406.407288,143.420044 
	C404.145477,146.178589 401.688110,148.470428 399.454254,150.962601 
	C394.417664,156.581589 389.598602,162.399689 384.448517,167.910080 
	C383.092743,169.360687 380.852234,169.984360 378.528076,170.619476 
	C376.029114,163.167511 374.020081,156.083832 372.356079,148.964905 
	C377.996338,143.194138 383.205444,137.375580 388.620758,131.755768 
	C391.616699,128.646713 394.957916,125.870384 398.143494,122.944061 
	C400.866730,129.644135 403.589966,136.344208 406.407288,143.420044 
z"/>
<path fill="#27A0BF" opacity="1.000000" stroke="none" 
	d="
M340.911591,48.509262 
	C337.508484,59.886864 332.778381,70.338135 324.235901,79.108856 
	C317.788452,74.577248 311.966003,70.021271 306.499878,65.282166 
	C311.267212,55.578537 320.760162,48.601322 320.946655,36.939556 
	C320.957520,36.259975 321.727936,35.592541 322.144897,34.919456 
	C328.351654,39.351116 334.558441,43.782776 340.911591,48.509262 
z"/>
<path fill="#1B87A6" opacity="1.000000" stroke="none" 
	d="
M398.104736,122.581940 
	C394.957916,125.870384 391.616699,128.646713 388.620758,131.755768 
	C383.205444,137.375580 377.996338,143.194138 372.123016,148.691986 
	C368.715454,141.965591 365.885986,135.476898 363.400330,128.954193 
	C364.676239,128.263565 365.890106,127.801125 366.496887,126.920403 
	C372.854858,117.691986 379.115662,108.396599 385.403320,99.119736 
	C389.624207,106.819756 393.845093,114.519783 398.104736,122.581940 
z"/>
<path fill="#1E8CAA" opacity="1.000000" stroke="none" 
	d="
M385.293762,98.826279 
	C379.115662,108.396599 372.854858,117.691986 366.496887,126.920403 
	C365.890106,127.801125 364.676239,128.263565 363.148193,128.723297 
	C359.348328,123.023270 356.144409,117.520149 353.218353,111.832520 
	C358.326660,106.417648 363.097260,101.160309 364.281708,93.719185 
	C364.373474,93.142670 364.910461,92.407188 365.434296,92.165359 
	C369.950775,90.080467 371.288055,85.701241 373.152985,81.694427 
	C377.163391,87.307228 381.173798,92.920029 385.293762,98.826279 
z"/>
<path fill="#208FAD" opacity="1.000000" stroke="none" 
	d="
M373.058838,81.377884 
	C371.288055,85.701241 369.950775,90.080467 365.434296,92.165359 
	C364.910461,92.407188 364.373474,93.142670 364.281708,93.719185 
	C363.097260,101.160309 358.326660,106.417648 352.933289,111.659607 
	C348.489197,106.476288 344.608002,101.281364 340.726807,96.086441 
	C348.219543,94.910095 349.338165,87.875832 352.391846,82.879356 
	C355.368774,78.008537 357.280792,72.486908 359.984680,67.044937 
	C364.527557,71.579712 368.746124,76.320534 373.058838,81.377884 
z"/>
<path fill="#29A7C4" opacity="1.000000" stroke="none" 
	d="
M321.948639,34.639099 
	C321.727936,35.592541 320.957520,36.259975 320.946655,36.939556 
	C320.760162,48.601322 311.267212,55.578537 306.213318,65.148712 
	C300.384491,62.061775 295.198486,58.925156 290.057861,55.450401 
	C292.707825,48.495045 297.548248,44.148556 303.800781,40.970875 
	C305.779510,39.965260 307.182220,37.826263 308.848541,36.205944 
	C307.055481,34.891533 305.282410,33.548107 303.452667,32.286919 
	C303.081421,32.031013 302.496307,32.085373 302.005646,31.748615 
	C302.001526,31.500530 301.995117,31.004332 301.997131,30.603481 
	C302.335571,28.122755 302.671967,26.042883 303.008362,23.963009 
	C309.256378,27.428253 315.504364,30.893499 321.948639,34.639099 
z"/>
<path fill="#36B3CF" opacity="1.000000" stroke="none" 
	d="
M261.004059,14.918200 
	C261.538788,13.005630 262.073547,11.093060 262.958069,8.996082 
	C270.405609,11.015300 277.503387,13.218925 284.565308,15.879263 
	C283.692383,18.211609 282.855377,20.087242 281.767090,21.971664 
	C281.348358,21.982157 281.180878,21.983862 280.783600,21.717960 
	C278.704254,20.965563 276.854736,20.480770 274.791412,19.711998 
	C271.763489,18.598156 268.949341,17.768295 265.895691,16.686108 
	C264.105469,15.928588 262.554749,15.423393 261.004059,14.918200 
z"/>
<path fill="#2DACC9" opacity="1.000000" stroke="none" 
	d="
M282.018372,21.962879 
	C282.855377,20.087242 283.692383,18.211609 284.811157,16.141247 
	C290.915924,18.437889 296.738922,20.929260 302.785156,23.691822 
	C302.671967,26.042883 302.335571,28.122755 301.674072,30.459969 
	C298.237030,29.477901 295.125061,28.238493 291.809204,26.724880 
	C288.409698,24.954744 285.214020,23.458811 282.018372,21.962879 
z"/>
<path fill="#FEFEFE" opacity="1.000000" stroke="none" 
	d="
M290.012512,55.788544 
	C295.198486,58.925156 300.384491,62.061775 305.857025,65.331848 
	C311.966003,70.021271 317.788452,74.577248 323.883972,79.280090 
	C329.491028,84.877304 334.824951,90.327660 340.442871,95.932228 
	C344.608002,101.281364 348.489197,106.476288 352.655457,111.844116 
	C356.144409,117.520149 359.348328,123.023270 362.804382,128.757294 
	C365.885986,135.476898 368.715454,141.965591 371.777985,148.727203 
	C374.020081,156.083832 376.029114,163.167511 378.176758,170.626984 
	C379.559235,180.053101 380.803131,189.103439 382.166687,198.581970 
	C382.172729,207.029892 382.059174,215.049637 382.001282,223.535492 
	C380.956390,231.046967 379.855835,238.092361 378.774261,245.563934 
	C376.013580,254.765472 373.233917,263.540771 370.396301,272.662445 
	C366.539124,280.747498 362.739868,288.486237 358.869934,296.578308 
	C351.669586,306.431000 344.539917,315.930328 337.289764,325.735626 
	C327.174805,334.640045 317.180298,343.238495 306.968170,352.063232 
	C291.361938,362.182526 275.155304,370.323090 257.203003,375.533508 
	C255.915512,375.820618 254.894119,375.868317 253.434784,375.493774 
	C250.591522,371.049957 248.186218,367.028442 245.732132,362.660553 
	C243.205078,356.202606 240.726791,350.091003 238.243484,343.568054 
	C237.089478,337.440704 235.940491,331.724640 234.836548,325.574768 
	C234.569443,319.094513 234.257278,313.048126 234.042603,306.634766 
	C234.399597,304.857269 234.659088,303.446747 234.971848,301.746674 
	C236.081467,302.267548 236.822601,302.577087 237.528671,302.952545 
	C253.152069,311.260620 269.698456,313.601227 286.686768,308.894867 
	C311.012573,302.155762 327.257660,286.666504 334.529419,261.796631 
	C337.108429,252.092056 338.095032,242.612061 335.964600,232.601624 
	C333.727539,225.697174 331.435730,219.196732 329.102112,212.353210 
	C324.987366,206.686737 320.914429,201.363358 316.714539,195.736343 
	C309.711304,189.009720 302.224426,183.582108 292.750244,180.711731 
	C283.827271,178.724289 275.164642,176.994904 266.464417,175.258026 
	C267.847076,172.712845 269.401276,169.851913 271.211792,166.752258 
	C276.256897,157.231552 278.455566,147.328568 278.665833,136.565933 
	C277.593353,129.601318 276.417297,122.994789 275.277466,116.024536 
	C272.268494,109.654594 269.223328,103.648384 266.089233,97.322006 
	C260.736328,91.828140 255.472321,86.654449 249.987213,81.241585 
	C228.560791,66.307693 198.821060,64.863724 178.480179,77.677536 
	C172.425827,82.516708 166.706451,87.235817 160.686157,92.105972 
	C156.216248,99.763016 152.047256,107.269005 147.628586,115.061050 
	C144.610611,124.745537 142.789719,134.227798 144.801208,144.472900 
	C146.796600,151.608536 148.829422,158.323761 150.912476,165.397842 
	C152.907028,169.344254 154.851349,172.931808 156.965454,176.832657 
	C154.118134,176.832657 151.530548,176.832657 148.493225,176.733185 
	C137.785522,176.863144 127.917137,178.635971 118.598022,184.011292 
	C113.053024,187.775482 107.859314,191.505341 102.367912,195.420959 
	C97.406723,202.407242 92.743233,209.207733 87.850037,216.289398 
	C85.876991,223.049866 84.133652,229.529190 82.264053,236.461182 
	C82.681122,244.116806 83.224434,251.319733 83.740318,258.901917 
	C88.010628,277.949677 98.575249,292.258514 114.987045,301.750305 
	C137.644928,314.854584 160.785233,314.019928 183.819595,301.811493 
	C184.243347,303.511536 184.558685,304.776611 184.825836,306.500671 
	C184.587189,312.975616 184.396713,318.991577 184.111969,325.418518 
	C182.841507,331.830780 181.665298,337.832062 180.308899,344.139832 
	C177.993423,350.262360 175.858154,356.078400 173.461426,362.110352 
	C171.018127,366.311035 168.836288,370.295807 166.654449,374.280579 
	C164.915466,374.604553 162.875397,375.686340 161.484589,375.133820 
	C149.175751,370.243896 136.982025,365.064178 124.397583,359.915039 
	C110.144104,351.143585 96.822243,341.679443 85.534935,329.653778 
	C81.462318,325.314789 77.640648,320.740265 73.412430,316.117157 
	C66.642387,305.429932 60.164383,294.898743 53.413330,284.162231 
	C49.863235,275.187927 46.586193,266.418915 43.119884,257.326050 
	C40.945526,245.626007 38.960430,234.249863 36.905411,222.440460 
	C37.219749,209.961945 37.604012,197.916718 37.942059,185.437622 
	C39.968697,175.945633 42.041553,166.887497 44.118584,157.431091 
	C47.457481,148.958603 50.792202,140.884384 54.214546,132.449829 
	C58.990887,124.373116 63.679611,116.656746 68.527733,108.620010 
	C73.347694,102.682098 78.008255,97.064545 82.815094,91.139977 
	C87.970779,86.133316 92.980194,81.433678 98.158051,76.435310 
	C103.114006,72.658592 107.901527,69.180611 112.868340,65.425232 
	C120.832207,60.832214 128.616791,56.516590 137.043274,51.950958 
	C144.506546,48.938282 151.327911,46.175610 158.560364,43.380867 
	C166.977463,41.530228 174.983490,39.711662 183.416046,37.940357 
	C193.552719,37.368553 203.294525,35.951420 212.964813,36.335434 
	C224.663803,36.800007 236.302246,38.788944 248.253845,40.349274 
	C254.700302,42.321392 260.859833,44.062435 267.362061,45.947044 
	C275.140656,49.323250 282.576569,52.555897 290.012512,55.788544 
z"/>
<path fill="#6FCFE3" opacity="1.000000" stroke="none" 
	d="
M260.651367,14.795124 
	C262.554749,15.423393 264.105469,15.928588 265.502380,16.856850 
	C260.106171,17.852789 254.869583,18.847361 249.620270,18.919653 
	C233.724274,19.138563 217.822540,19.094948 201.924744,18.956253 
	C195.138702,18.897049 188.359802,18.252556 181.572403,18.049183 
	C174.497009,17.837181 167.409988,17.951691 160.341751,17.626047 
	C159.201813,17.573530 158.133224,15.972031 157.031662,15.086559 
	C160.385925,14.364897 163.740173,13.643234 167.710602,13.264896 
	C168.849579,13.999240 169.355484,14.706111 169.897659,14.735137 
	C183.872681,15.483333 197.845200,16.430502 211.831833,16.755499 
	C221.092926,16.970692 230.385941,16.459953 239.643707,15.917131 
	C244.823288,15.613431 249.960144,14.581251 255.116257,13.877317 
	C256.843719,14.142229 258.571198,14.407140 260.651367,14.795124 
z"/>
<path fill="#7ED5E7" opacity="1.000000" stroke="none" 
	d="
M254.837372,13.628386 
	C249.960144,14.581251 244.823288,15.613431 239.643707,15.917131 
	C230.385941,16.459953 221.092926,16.970692 211.831833,16.755499 
	C197.845200,16.430502 183.872681,15.483333 169.897659,14.735137 
	C169.355484,14.706111 168.849579,13.999240 168.122101,13.251333 
	C171.242172,12.223442 174.566940,11.552440 178.726746,11.059486 
	C180.346115,11.479837 181.125595,11.916043 181.915482,11.935766 
	C197.234055,12.318273 212.553162,12.827194 227.873795,12.885647 
	C232.277130,12.902447 236.685532,11.590569 241.091614,10.887886 
	C241.829880,10.923773 242.568161,10.959659 243.748047,11.186953 
	C244.189651,11.378361 244.615005,11.490194 244.615005,11.490194 
	C244.615005,11.490194 244.933273,11.136743 244.933273,11.136744 
	C248.141678,11.884313 251.350098,12.631883 254.837372,13.628386 
z"/>
<path fill="#8DDBEB" opacity="1.000000" stroke="none" 
	d="
M240.780670,10.642488 
	C236.685532,11.590569 232.277130,12.902447 227.873795,12.885647 
	C212.553162,12.827194 197.234055,12.318273 181.915482,11.935766 
	C181.125595,11.916043 180.346115,11.479837 179.148560,11.062346 
	C178.735352,10.887156 178.881073,10.449089 178.940552,10.226072 
	C188.754974,9.327218 198.515411,8.048289 208.263351,8.137316 
	C219.004791,8.235415 229.734756,9.589907 240.780670,10.642488 
z"/>
<path fill="#8DDBEB" opacity="1.000000" stroke="none" 
	d="
M244.711548,11.100641 
	C244.933273,11.136743 244.615005,11.490194 244.615005,11.490194 
	C244.615005,11.490194 244.189651,11.378361 244.115234,11.229536 
	C244.040817,11.080712 244.489822,11.064541 244.711548,11.100641 
z"/>
<path fill="#3DBBD6" opacity="1.000000" stroke="none" 
	d="
M247.966904,40.118198 
	C236.302246,38.788944 224.663803,36.800007 212.964813,36.335434 
	C203.294525,35.951420 193.552719,37.368553 183.348663,37.589951 
	C181.115570,36.384464 179.442871,35.098129 177.626572,34.845898 
	C165.119659,33.109035 152.567856,31.694763 140.063171,29.943321 
	C135.333817,29.280914 130.691040,28.000505 126.008797,27.001793 
	C126.573479,26.502985 127.138161,26.004177 127.861687,25.266165 
	C129.798904,24.450289 131.577286,23.873617 133.761765,23.543003 
	C138.559326,24.853151 142.896729,26.390720 147.351624,26.899172 
	C166.388702,29.071932 185.448807,31.065168 204.525467,32.858181 
	C211.920502,33.553242 219.484192,34.478096 226.792725,33.675137 
	C245.828156,31.583790 264.732819,28.216116 283.921265,29.382635 
	C283.516602,30.109707 283.238556,30.699099 282.855896,30.777466 
	C274.016998,32.587444 265.123871,34.158501 256.342621,36.209564 
	C253.406570,36.895340 250.750793,38.781013 247.966904,40.118198 
z"/>
<path fill="#36B3CF" opacity="1.000000" stroke="none" 
	d="
M125.650436,27.035244 
	C130.691040,28.000505 135.333817,29.280914 140.063171,29.943321 
	C152.567856,31.694763 165.119659,33.109035 177.626572,34.845898 
	C179.442871,35.098129 181.115570,36.384464 182.922119,37.542694 
	C174.983490,39.711662 166.977463,41.530228 158.485504,42.993584 
	C153.740265,40.752365 149.644699,38.157619 145.187561,37.127815 
	C135.893555,34.980465 126.408417,33.660362 117.001808,32.000374 
	C119.765236,30.356482 122.528664,28.712589 125.650436,27.035244 
z"/>
<path fill="#2DACC9" opacity="1.000000" stroke="none" 
	d="
M116.646774,32.035099 
	C126.408417,33.660362 135.893555,34.980465 145.187561,37.127815 
	C149.644699,38.157619 153.740265,40.752365 158.074417,43.025658 
	C151.327911,46.175610 144.506546,48.938282 137.334488,51.746185 
	C134.055756,49.063267 131.432785,45.859516 128.118439,43.733665 
	C124.412483,41.356632 120.046761,40.025303 116.036736,38.096321 
	C114.557457,37.384731 113.273537,36.267029 111.071091,34.771263 
	C113.483055,33.523193 114.887398,32.796509 116.646774,32.035099 
z"/>
<path fill="#49BDD6" opacity="1.000000" stroke="none" 
	d="
M283.999146,29.006901 
	C264.732819,28.216116 245.828156,31.583790 226.792725,33.675137 
	C219.484192,34.478096 211.920502,33.553242 204.525467,32.858181 
	C185.448807,31.065168 166.388702,29.071932 147.351624,26.899172 
	C142.896729,26.390720 138.559326,24.853151 134.087463,23.409182 
	C135.405258,22.678457 136.803452,22.327608 138.954605,22.139963 
	C141.666122,22.535013 143.618896,22.862532 145.584305,22.981539 
	C152.700134,23.412415 159.834869,23.599152 166.935516,24.197752 
	C180.605957,25.350199 194.246933,27.610794 207.920410,27.780912 
	C225.984390,28.005657 244.072922,26.771406 262.139862,25.928061 
	C267.557678,25.675165 272.950745,24.711679 278.325348,23.880953 
	C279.295837,23.730947 280.121124,22.641365 281.013428,21.985565 
	C281.180878,21.983862 281.348358,21.982157 281.767090,21.971666 
	C285.214020,23.458811 288.409698,24.954744 291.578979,27.017727 
	C289.034760,28.058819 286.516968,28.532860 283.999146,29.006901 
z"/>
<path fill="#53C5DD" opacity="1.000000" stroke="none" 
	d="
M280.783600,21.717960 
	C280.121124,22.641365 279.295837,23.730947 278.325348,23.880953 
	C272.950745,24.711679 267.557678,25.675165 262.139862,25.928061 
	C244.072922,26.771406 225.984390,28.005657 207.920410,27.780912 
	C194.246933,27.610794 180.605957,25.350199 166.935516,24.197752 
	C159.834869,23.599152 152.700134,23.412415 145.584305,22.981539 
	C143.618896,22.862532 141.666122,22.535013 139.319214,22.133078 
	C142.006378,20.637020 145.081909,19.311052 148.924164,18.143864 
	C152.308517,18.568945 154.923859,18.860369 157.544144,19.097366 
	C172.005173,20.405329 186.452911,22.559641 200.932510,22.803535 
	C224.324554,23.197546 247.738388,22.362703 271.140503,21.914783 
	C272.440491,21.889902 273.717499,20.663248 275.005219,19.995972 
	C276.854736,20.480770 278.704254,20.965563 280.783600,21.717960 
z"/>
<path fill="#61C9DF" opacity="1.000000" stroke="none" 
	d="
M274.791412,19.711990 
	C273.717499,20.663248 272.440491,21.889902 271.140503,21.914783 
	C247.738388,22.362703 224.324554,23.197546 200.932510,22.803535 
	C186.452911,22.559641 172.005173,20.405329 157.544144,19.097366 
	C154.923859,18.860369 152.308517,18.568945 149.306396,18.135118 
	C150.372925,17.309961 151.823959,16.652330 153.628662,15.963783 
	C154.784195,15.648820 155.586014,15.364776 156.709747,15.083645 
	C158.133224,15.972031 159.201813,17.573530 160.341751,17.626047 
	C167.409988,17.951691 174.497009,17.837181 181.572403,18.049183 
	C188.359802,18.252556 195.138702,18.897049 201.924744,18.956253 
	C217.822540,19.094948 233.724274,19.138563 249.620270,18.919653 
	C254.869583,18.847361 260.106171,17.852789 265.741913,17.109177 
	C268.949341,17.768295 271.763489,18.598156 274.791412,19.711990 
z"/>
<path fill="#065474" opacity="1.000000" stroke="none" 
	d="
M166.889343,374.670044 
	C168.836288,370.295807 171.018127,366.311035 173.878021,362.144714 
	C198.247452,365.739166 221.990402,365.995453 245.780914,363.006897 
	C248.186218,367.028442 250.591522,371.049957 253.058258,375.407593 
	C249.665588,376.827881 246.231644,378.765808 242.753891,378.847961 
	C227.969040,379.197144 213.149765,379.482391 198.385345,378.831421 
	C187.929886,378.370453 177.542191,376.371796 166.889343,374.670044 
z"/>
<path fill="#2DACC9" opacity="1.000000" stroke="none" 
	d="
M290.057861,55.450405 
	C282.576569,52.555897 275.140656,49.323250 267.408112,45.604645 
	C268.646454,43.969616 270.021759,42.357105 271.747711,41.762478 
	C276.103729,40.261742 280.667389,39.373333 285.055817,37.954815 
	C290.753754,36.112999 296.362579,33.995518 302.009766,31.996700 
	C302.496307,32.085373 303.081421,32.031013 303.452667,32.286919 
	C305.282410,33.548107 307.055481,34.891533 308.848541,36.205944 
	C307.182220,37.826263 305.779510,39.965260 303.800781,40.970875 
	C297.548248,44.148556 292.707825,48.495045 290.057861,55.450405 
z"/>
<path fill="#36B3CF" opacity="1.000000" stroke="none" 
	d="
M302.005646,31.748615 
	C296.362579,33.995518 290.753754,36.112999 285.055817,37.954815 
	C280.667389,39.373333 276.103729,40.261742 271.747711,41.762478 
	C270.021759,42.357105 268.646454,43.969616 267.065430,45.461082 
	C260.859833,44.062435 254.700302,42.321392 248.253845,40.349274 
	C250.750793,38.781013 253.406570,36.895340 256.342621,36.209564 
	C265.123871,34.158501 274.016998,32.587444 282.855896,30.777466 
	C283.238556,30.699099 283.516602,30.109707 283.921265,29.382635 
	C286.516968,28.532860 289.034760,28.058819 291.782837,27.291931 
	C295.125061,28.238493 298.237030,29.477901 301.672058,30.860821 
	C301.995117,31.004332 302.001526,31.500530 302.005646,31.748615 
z"/>
<path fill="#116A8A" opacity="1.000000" stroke="none" 
	d="
M184.874008,306.041718 
	C184.558685,304.776611 184.243347,303.511536 183.819595,301.811493 
	C160.785233,314.019928 137.644928,314.854584 114.987045,301.750305 
	C98.575249,292.258514 88.010628,277.949677 83.902046,258.590637 
	C89.250526,260.700989 94.881004,262.907623 99.412445,266.500427 
	C102.731026,269.131561 104.984360,269.144562 108.267838,267.212585 
	C115.651497,279.217255 125.974686,286.667633 139.359116,289.767548 
	C151.011841,292.466370 161.963394,289.888702 172.955444,284.889648 
	C176.176025,285.330994 179.011063,285.477325 181.711258,286.158356 
	C196.996414,290.013306 212.632996,289.410370 228.177109,289.977997 
	C229.318069,290.019684 230.482941,289.823700 231.614975,289.618408 
	C235.674438,288.882233 239.724564,288.094543 243.778214,287.326355 
	C244.342728,288.413574 244.700470,288.193542 244.740692,287.925812 
	C244.887589,286.947693 244.928619,285.953735 245.378952,285.004883 
	C253.407318,286.976654 261.000397,290.180939 268.738678,290.581604 
	C285.744934,291.462158 298.903870,283.331970 309.500488,270.012482 
	C314.544159,269.043701 319.251373,268.418579 323.710571,267.008881 
	C327.388000,265.846313 330.771790,263.754822 334.285706,262.074982 
	C327.257660,286.666504 311.012573,302.155762 286.686768,308.894867 
	C269.698456,313.601227 253.152069,311.260620 237.528671,302.952545 
	C236.822601,302.577087 236.081467,302.267548 234.971848,301.746674 
	C234.659088,303.446747 234.399597,304.857269 233.577637,306.634094 
	C216.968109,306.680817 200.921066,306.361267 184.874008,306.041718 
z"/>
<path fill="#208EAC" opacity="1.000000" stroke="none" 
	d="
M148.942978,176.832657 
	C151.530548,176.832657 154.118134,176.832657 156.965454,176.832657 
	C154.851349,172.931808 152.907028,169.344254 151.348328,165.386581 
	C154.467621,165.502213 157.239883,165.833252 159.927383,166.503998 
	C166.746658,168.205917 173.527939,170.060089 180.643326,171.943512 
	C186.888153,175.166870 192.533829,179.122849 198.799973,181.257233 
	C210.837067,185.357285 217.822983,182.477371 225.461166,172.001190 
	C231.942383,171.008041 238.017563,170.015076 244.126831,169.419281 
	C242.880585,177.588852 238.966599,183.728897 232.433792,188.065643 
	C221.469482,195.344193 209.332336,195.000092 196.965759,192.833405 
	C193.808090,188.834702 190.274582,188.685318 186.319122,191.233704 
	C186.220413,191.293076 186.008041,191.203796 185.958771,190.826416 
	C184.578293,189.626907 183.346207,188.425842 181.898956,188.047134 
	C175.038055,186.251785 168.003601,185.042236 161.261154,182.899704 
	C156.947983,181.529114 153.035233,178.898422 148.942978,176.832657 
z"/>
<path fill="#085879" opacity="1.000000" stroke="none" 
	d="
M245.732132,362.660553 
	C221.990402,365.995453 198.247452,365.739166 174.139465,361.928833 
	C175.858154,356.078400 177.993423,350.262360 180.805908,344.185486 
	C197.476105,344.283081 213.468185,344.701813 229.462936,344.945099 
	C232.385880,344.989594 235.319702,344.319611 238.248505,343.979401 
	C240.726791,350.091003 243.205078,356.202606 245.732132,362.660553 
z"/>
<path fill="#1B87A6" opacity="1.000000" stroke="none" 
	d="
M293.010559,180.969788 
	C302.224426,183.582108 309.711304,189.009720 316.347595,195.777222 
	C309.783691,199.234299 303.459747,202.346893 296.843628,205.327087 
	C289.237152,200.401169 281.214050,197.580704 272.500092,197.015228 
	C255.407257,195.906021 242.160767,203.164413 231.183350,216.131516 
	C227.083572,215.704910 223.453827,215.325333 219.891296,214.596710 
	C225.650192,207.218994 231.341888,200.190353 237.243500,193.485443 
	C239.162811,194.206100 240.895966,195.028137 242.577911,194.934158 
	C259.432831,193.992294 275.159485,188.370132 290.925476,182.973572 
	C291.752289,182.690552 292.321442,181.654999 293.010559,180.969788 
z"/>
<path fill="#2DACC9" opacity="1.000000" stroke="none" 
	d="
M178.815155,77.557480 
	C198.821060,64.863724 228.560791,66.307693 249.823669,81.619301 
	C249.417191,82.697655 249.021759,83.447319 248.478653,83.576591 
	C242.057709,85.104973 235.585297,86.426414 229.195984,88.072357 
	C227.352020,88.547386 225.730453,89.885628 223.605164,90.815735 
	C217.189774,90.386261 211.176147,89.969177 205.076294,89.130257 
	C203.622940,88.139046 202.292740,87.202255 200.882660,87.060616 
	C192.498596,86.218437 185.326309,82.684341 178.815155,77.557480 
z"/>
<path fill="#0B5E7E" opacity="1.000000" stroke="none" 
	d="
M238.243484,343.568054 
	C235.319702,344.319611 232.385880,344.989594 229.462936,344.945099 
	C213.468185,344.701813 197.476105,344.283081 180.986099,343.878998 
	C181.665298,337.832062 182.841507,331.830780 184.552826,325.417023 
	C201.655777,325.339264 218.223648,325.673950 234.791504,326.008606 
	C235.940491,331.724640 237.089478,337.440704 238.243484,343.568054 
z"/>
<path fill="#0E6585" opacity="1.000000" stroke="none" 
	d="
M234.836548,325.574768 
	C218.223648,325.673950 201.655777,325.339264 184.647064,325.006073 
	C184.396713,318.991577 184.587189,312.975616 184.825836,306.500671 
	C200.921066,306.361267 216.968109,306.680817 233.480133,307.001038 
	C234.257278,313.048126 234.569443,319.094513 234.836548,325.574768 
z"/>
<path fill="#1E8CAA" opacity="1.000000" stroke="none" 
	d="
M292.750244,180.711731 
	C292.321442,181.654999 291.752289,182.690552 290.925476,182.973572 
	C275.159485,188.370132 259.432831,193.992294 242.577911,194.934158 
	C240.895966,195.028137 239.162811,194.206100 237.368927,193.166351 
	C241.967300,185.020737 246.650177,177.517944 251.711456,170.014282 
	C256.052032,169.636093 260.034668,169.399536 263.968781,168.828751 
	C266.336731,168.485199 268.629120,167.621140 270.955475,166.990967 
	C269.401276,169.851913 267.847076,172.712845 266.464417,175.258026 
	C275.164642,176.994904 283.827271,178.724289 292.750244,180.711731 
z"/>
<path fill="#147191" opacity="1.000000" stroke="none" 
	d="
M334.529419,261.796631 
	C330.771790,263.754822 327.388000,265.846313 323.710571,267.008881 
	C319.251373,268.418579 314.544159,269.043701 309.568726,269.667114 
	C314.984955,260.764496 316.542603,251.030670 317.394318,240.962784 
	C323.805084,238.284164 329.857452,235.644882 335.909851,233.005615 
	C338.095032,242.612061 337.108429,252.092056 334.529419,261.796631 
z"/>
<path fill="#1B87A6" opacity="1.000000" stroke="none" 
	d="
M148.493225,176.733185 
	C153.035233,178.898422 156.947983,181.529114 161.261154,182.899704 
	C168.003601,185.042236 175.038055,186.251785 181.898956,188.047134 
	C183.346207,188.425842 184.578293,189.626907 185.519775,190.835327 
	C168.959763,188.420258 153.410080,191.109909 138.124619,196.100922 
	C138.590363,191.939224 135.927200,191.197357 133.215591,190.140823 
	C128.391953,188.261292 123.697701,186.049667 118.949326,183.976944 
	C127.917137,178.635971 137.785522,176.863144 148.493225,176.733185 
z"/>
<path fill="#2295B3" opacity="1.000000" stroke="none" 
	d="
M271.211792,166.752274 
	C268.629120,167.621140 266.336731,168.485199 263.968781,168.828751 
	C260.034668,169.399536 256.052032,169.636093 251.780167,169.669510 
	C253.693466,160.552505 255.916443,151.779404 258.518005,142.996460 
	C265.451843,140.965744 272.007080,138.944885 278.562286,136.924026 
	C278.455566,147.328568 276.256897,157.231552 271.211792,166.752274 
z"/>
<path fill="#2398B6" opacity="1.000000" stroke="none" 
	d="
M144.838638,144.052521 
	C142.789719,134.227798 144.610611,124.745537 147.813232,115.361885 
	C154.018921,118.631439 159.790329,121.886230 165.492676,125.598801 
	C165.804565,134.303299 166.185532,142.550018 166.120300,150.850418 
	C164.527557,150.796539 163.297729,150.920486 162.248291,150.542999 
	C156.420853,148.446823 150.637253,146.228821 144.838638,144.052521 
z"/>
<path fill="#27A0BF" opacity="1.000000" stroke="none" 
	d="
M165.561722,125.141022 
	C159.790329,121.886230 154.018921,118.631439 148.062897,115.075821 
	C152.047256,107.269005 156.216248,99.763016 160.695221,92.478119 
	C161.874603,93.739754 162.536758,95.245995 163.648941,95.740837 
	C168.681885,97.980141 173.841995,99.933647 178.798767,102.288010 
	C171.615295,108.558258 168.336960,116.703773 165.561722,125.141022 
z"/>
<path fill="#29A7C4" opacity="1.000000" stroke="none" 
	d="
M178.956314,101.990074 
	C173.841995,99.933647 168.681885,97.980141 163.648941,95.740837 
	C162.536758,95.245995 161.874603,93.739754 160.996155,92.327072 
	C166.706451,87.235817 172.425827,82.516708 178.480179,77.677536 
	C185.326309,82.684341 192.498596,86.218437 200.882660,87.060616 
	C202.292740,87.202255 203.622940,88.139046 204.720703,89.253433 
	C194.474655,90.770805 186.488602,95.905983 178.956314,101.990074 
z"/>
<path fill="#29A7C4" opacity="1.000000" stroke="none" 
	d="
M224.006943,90.828110 
	C225.730453,89.885628 227.352020,88.547386 229.195984,88.072357 
	C235.585297,86.426414 242.057709,85.104973 248.478653,83.576591 
	C249.021759,83.447319 249.417191,82.697655 250.044769,81.858482 
	C255.472321,86.654449 260.736328,91.828140 265.870605,97.649010 
	C264.825043,98.581551 263.863098,98.767639 263.001068,99.168602 
	C257.939453,101.522995 252.901199,103.927544 247.567871,106.130783 
	C241.049698,98.556366 233.006409,93.956238 224.006943,90.828110 
z"/>
<path fill="#127090" opacity="1.000000" stroke="none" 
	d="
M107.993980,267.020538 
	C104.984360,269.144562 102.731026,269.131561 99.412445,266.500427 
	C94.881004,262.907623 89.250526,260.700989 83.929474,258.211395 
	C83.224434,251.319733 82.681122,244.116806 82.608124,236.467422 
	C84.068810,236.529327 85.045502,237.066681 86.051826,237.541199 
	C91.343315,240.036377 96.642296,242.515640 102.027817,245.411713 
	C104.075966,252.888809 106.034973,259.954681 107.993980,267.020538 
z"/>
<path fill="#1A7B9A" opacity="1.000000" stroke="none" 
	d="
M88.079742,216.008240 
	C92.743233,209.207733 97.406723,202.407242 102.536125,195.788086 
	C105.004379,197.019653 107.284431,197.748718 108.949829,199.188660 
	C112.170502,201.973358 115.044739,205.158737 117.928513,208.477844 
	C113.936523,213.872330 110.078590,218.966995 105.850494,224.018555 
	C103.324478,222.819366 100.703384,222.101990 99.111687,220.413956 
	C96.001350,217.115433 92.295410,216.119522 88.079742,216.008240 
z"/>
<path fill="#147191" opacity="1.000000" stroke="none" 
	d="
M87.850037,216.289398 
	C92.295410,216.119522 96.001350,217.115433 99.111687,220.413956 
	C100.703384,222.101990 103.324478,222.819366 105.791031,224.397873 
	C104.714035,231.547028 103.326347,238.273743 101.938660,245.000458 
	C96.642296,242.515640 91.343315,240.036377 86.051826,237.541199 
	C85.045502,237.066681 84.068810,236.529327 82.734375,236.014740 
	C84.133652,229.529190 85.876991,223.049866 87.850037,216.289398 
z"/>
<path fill="#27A0BF" opacity="1.000000" stroke="none" 
	d="
M247.855057,106.315178 
	C252.901199,103.927544 257.939453,101.522995 263.001068,99.168602 
	C263.863098,98.767639 264.825043,98.581551 265.959503,97.969185 
	C269.223328,103.648384 272.268494,109.654594 275.127258,116.394707 
	C270.101624,122.388229 263.074860,121.939705 256.808594,123.700577 
	C253.690002,117.705635 250.772537,112.010406 247.855057,106.315178 
z"/>
<path fill="#1C84A2" opacity="1.000000" stroke="none" 
	d="
M118.062561,208.178040 
	C115.044739,205.158737 112.170502,201.973358 108.949829,199.188660 
	C107.284431,197.748718 105.004379,197.019653 102.833817,195.602310 
	C107.859314,191.505341 113.053024,187.775482 118.598022,184.011292 
	C123.697701,186.049667 128.391953,188.261292 133.215591,190.140823 
	C135.927200,191.197357 138.590363,191.939224 137.823608,196.289001 
	C131.065445,200.662857 124.564003,204.420441 118.062561,208.178040 
z"/>
<path fill="#208FAD" opacity="1.000000" stroke="none" 
	d="
M144.801208,144.472900 
	C150.637253,146.228821 156.420853,148.446823 162.248291,150.542999 
	C163.297729,150.920486 164.527557,150.796539 166.285767,151.143646 
	C171.373108,158.206573 175.848770,165.029938 180.324432,171.853302 
	C173.527939,170.060089 166.746658,168.205917 159.927383,166.503998 
	C157.239883,165.833252 154.467621,165.502213 151.298096,165.027740 
	C148.829422,158.323761 146.796600,151.608536 144.801208,144.472900 
z"/>
<path fill="#19809E" opacity="1.000000" stroke="none" 
	d="
M297.135834,205.459488 
	C303.459747,202.346893 309.783691,199.234299 316.474548,196.080841 
	C320.914429,201.363358 324.987366,206.686737 328.901550,212.665527 
	C322.676727,215.596786 316.610687,217.872650 310.311584,219.928833 
	C305.764282,214.959244 301.450043,210.209366 297.135834,205.459488 
z"/>
<path fill="#177998" opacity="1.000000" stroke="none" 
	d="
M310.544678,220.148529 
	C316.610687,217.872650 322.676727,215.596786 328.943329,213.008606 
	C331.435730,219.196732 333.727539,225.697174 335.964600,232.601624 
	C329.857452,235.644882 323.805084,238.284164 317.242676,240.596588 
	C314.670013,233.562683 312.607330,226.855606 310.544678,220.148529 
z"/>
<path fill="#279BB9" opacity="1.000000" stroke="none" 
	d="
M257.009674,124.000282 
	C263.074860,121.939705 270.101624,122.388229 275.091064,116.758438 
	C276.417297,122.994789 277.593353,129.601318 278.665833,136.565933 
	C272.007080,138.944885 265.451843,140.965744 258.458801,142.532730 
	C257.683868,136.052658 257.346771,130.026474 257.009674,124.000282 
z"/>
<path fill="#FDFEFE" opacity="1.000000" stroke="none" 
	d="
M256.808594,123.700577 
	C257.346771,130.026474 257.683868,136.052658 258.080200,142.542572 
	C255.916443,151.779404 253.693466,160.552505 251.401764,169.670380 
	C246.650177,177.517944 241.967300,185.020737 237.158997,192.842621 
	C231.341888,200.190353 225.650192,207.218994 219.613556,214.801727 
	C215.169144,222.787750 212.680603,230.548416 214.422394,239.570587 
	C218.032516,253.874496 228.876236,262.793152 242.258484,262.854767 
	C254.580093,262.911499 266.141083,254.353836 269.655762,242.574753 
	C272.168549,234.153366 270.777283,224.758224 266.991486,222.437164 
	C266.806549,225.476852 267.075531,228.820160 266.320862,231.913742 
	C264.506592,239.350571 259.506317,244.121262 252.128952,245.821457 
	C243.637146,247.778473 236.819351,244.544449 231.368378,237.487122 
	C226.422241,230.047729 227.326965,223.078430 231.653412,216.178543 
	C242.160767,203.164413 255.407257,195.906021 272.500092,197.015228 
	C281.214050,197.580704 289.237152,200.401169 296.843628,205.327087 
	C301.450043,210.209366 305.764282,214.959244 310.311584,219.928833 
	C312.607330,226.855606 314.670013,233.562683 316.884277,240.635956 
	C316.542603,251.030670 314.984955,260.764496 309.124939,269.671265 
	C298.903870,283.331970 285.744934,291.462158 268.738678,290.581604 
	C261.000397,290.180939 253.407318,286.976654 245.170471,284.734772 
	C235.887756,277.893616 227.182953,271.361725 218.327652,264.513794 
	C212.812164,255.788406 207.447189,247.379074 202.072418,238.590546 
	C199.369217,232.486816 196.675781,226.762329 193.931396,220.694748 
	C189.326401,215.127579 185.515747,208.898804 180.075043,204.873001 
	C165.388351,194.005676 145.899597,200.581650 139.293945,213.525864 
	C131.044968,226.243744 136.053467,241.394623 143.976562,248.775726 
	C150.397751,254.757690 161.457321,258.330811 165.861435,255.738602 
	C147.949356,251.701508 143.412842,232.534851 154.338562,221.880203 
	C163.649979,214.823715 170.945404,214.923767 181.771790,222.450150 
	C184.735474,228.224380 187.564865,233.670944 190.469269,239.538788 
	C192.738953,247.685043 192.012024,255.356522 189.938538,263.316223 
	C186.590683,272.799072 180.739014,279.787598 172.507614,284.841583 
	C161.963394,289.888702 151.011841,292.466370 139.359116,289.767548 
	C125.974686,286.667633 115.651497,279.217255 108.267838,267.212585 
	C106.034973,259.954681 104.075966,252.888809 102.027817,245.411713 
	C103.326347,238.273743 104.714035,231.547028 106.161194,224.440979 
	C110.078590,218.966995 113.936523,213.872330 117.928513,208.477844 
	C124.564003,204.420441 131.065445,200.662857 137.867889,196.717194 
	C153.410080,191.109909 168.959763,188.420258 185.569031,191.212692 
	C186.008041,191.203796 186.220413,191.293076 186.654297,191.492188 
	C190.397430,192.196289 193.706650,192.701279 197.015884,193.206268 
	C209.332336,195.000092 221.469482,195.344193 232.433792,188.065643 
	C238.966599,183.728897 242.880585,177.588852 244.340271,169.083313 
	C245.496994,160.815781 243.936584,153.953384 239.016937,147.628204 
	C231.713623,138.435883 222.467636,134.641876 211.180038,136.616806 
	C202.205002,138.187134 195.007523,143.536346 193.330536,149.318207 
	C208.484436,142.256897 213.363464,142.684387 223.139969,152.266724 
	C227.233612,158.760986 227.687851,165.237473 225.055145,172.001358 
	C217.822983,182.477371 210.837067,185.357285 198.799973,181.257233 
	C192.533829,179.122849 186.888153,175.166870 180.643326,171.943512 
	C175.848770,165.029938 171.373108,158.206573 166.731964,151.089966 
	C166.185532,142.550018 165.804565,134.303299 165.492676,125.598801 
	C168.336960,116.703773 171.615295,108.558258 178.798767,102.288010 
	C186.488602,95.905983 194.474655,90.770805 204.806931,89.675262 
	C211.176147,89.969177 217.189774,90.386261 223.605164,90.815735 
	C233.006409,93.956238 241.049698,98.556366 247.567871,106.130783 
	C250.772537,112.010406 253.690002,117.705635 256.808594,123.700577 
M191.985428,150.483749 
	C192.208923,150.557068 192.432404,150.630386 192.655899,150.703690 
	C192.578705,150.475235 192.501511,150.246780 191.985428,150.483749 
z"/>
<path fill="#127090" opacity="1.000000" stroke="none" 
	d="
M172.955444,284.889648 
	C180.739014,279.787598 186.590683,272.799072 190.344955,263.374146 
	C200.116089,263.691650 209.297119,264.260742 218.478149,264.829865 
	C227.182953,271.361725 235.887756,277.893616 244.801056,284.695618 
	C244.928619,285.953735 244.887589,286.947693 244.740692,287.925812 
	C244.700470,288.193542 244.342728,288.413574 243.778214,287.326355 
	C239.724564,288.094543 235.674438,288.882233 231.614975,289.618408 
	C230.482941,289.823700 229.318069,290.019684 228.177109,289.977997 
	C212.632996,289.410370 196.996414,290.013306 181.711258,286.158356 
	C179.011063,285.477325 176.176025,285.330994 172.955444,284.889648 
z"/>
<path fill="#2295B3" opacity="1.000000" stroke="none" 
	d="
M225.461166,172.001190 
	C227.687851,165.237473 227.233612,158.760986 223.204620,151.903229 
	C228.478973,150.113449 233.798874,149.033493 239.118774,147.953522 
	C243.936584,153.953384 245.496994,160.815781 244.306213,168.686127 
	C238.017563,170.015076 231.942383,171.008041 225.461166,172.001190 
z"/>
<path fill="#1B87A6" opacity="1.000000" stroke="none" 
	d="
M196.965759,192.833405 
	C193.706650,192.701279 190.397430,192.196289 186.753021,191.432831 
	C190.274582,188.685318 193.808090,188.834702 196.965759,192.833405 
z"/>
<path fill="#19809E" opacity="1.000000" stroke="none" 
	d="
M214.408875,239.169617 
	C212.680603,230.548416 215.169144,222.787750 219.546371,215.150803 
	C223.453827,215.325333 227.083572,215.704910 231.183350,216.131516 
	C227.326965,223.078430 226.422241,230.047729 230.942032,237.525909 
	C225.240051,238.335861 219.824463,238.752747 214.408875,239.169617 
z"/>
<path fill="#1A7B9A" opacity="1.000000" stroke="none" 
	d="
M214.422394,239.570587 
	C219.824463,238.752747 225.240051,238.335861 231.081970,237.880188 
	C236.819351,244.544449 243.637146,247.778473 252.128952,245.821457 
	C259.506317,244.121262 264.506592,239.350571 266.320862,231.913742 
	C267.075531,228.820160 266.806549,225.476852 266.991486,222.437164 
	C270.777283,224.758224 272.168549,234.153366 269.655762,242.574753 
	C266.141083,254.353836 254.580093,262.911499 242.258484,262.854767 
	C228.876236,262.793152 218.032516,253.874496 214.422394,239.570587 
z"/>
<path fill="#1C84A2" opacity="1.000000" stroke="none" 
	d="
M139.577255,213.292740 
	C145.899597,200.581650 165.388351,194.005676 180.075043,204.873001 
	C185.515747,208.898804 189.326401,215.127579 193.758026,221.016510 
	C189.636246,221.828384 185.636856,221.975433 181.637482,222.122467 
	C170.945404,214.923767 163.649979,214.823715 154.033356,221.734161 
	C150.167816,218.897858 147.647980,214.872269 142.293976,215.737259 
	C141.539719,215.859116 140.490128,214.152832 139.577255,213.292740 
z"/>
<path fill="#1A7B9A" opacity="1.000000" stroke="none" 
	d="
M139.293945,213.525864 
	C140.490128,214.152832 141.539719,215.859116 142.293976,215.737259 
	C147.647980,214.872269 150.167816,218.897858 153.711197,221.861816 
	C143.412842,232.534851 147.949356,251.701508 165.861435,255.738602 
	C161.457321,258.330811 150.397751,254.757690 143.976562,248.775726 
	C136.053467,241.394623 131.044968,226.243744 139.293945,213.525864 
z"/>
<path fill="#177998" opacity="1.000000" stroke="none" 
	d="
M218.327652,264.513794 
	C209.297119,264.260742 200.116089,263.691650 190.528625,263.064636 
	C192.012024,255.356522 192.738953,247.685043 190.972733,239.509796 
	C194.961517,239.029617 198.521851,238.999695 202.082199,238.969757 
	C207.447189,247.379074 212.812164,255.788406 218.327652,264.513794 
z"/>
<path fill="#279BB9" opacity="1.000000" stroke="none" 
	d="
M239.016937,147.628204 
	C233.798874,149.033493 228.478973,150.113449 223.094421,151.556900 
	C213.363464,142.684387 208.484436,142.256897 193.330536,149.318207 
	C195.007523,143.536346 202.205002,138.187134 211.180038,136.616806 
	C222.467636,134.641876 231.713623,138.435883 239.016937,147.628204 
z"/>
<path fill="#19809E" opacity="1.000000" stroke="none" 
	d="
M202.072418,238.590546 
	C198.521851,238.999695 194.961517,239.029617 190.897705,239.088531 
	C187.564865,233.670944 184.735474,228.224380 181.771790,222.450134 
	C185.636856,221.975433 189.636246,221.828384 193.808990,221.359589 
	C196.675781,226.762329 199.369217,232.486816 202.072418,238.590546 
z"/>
<path fill="#279BB9" opacity="1.000000" stroke="none" 
	d="
M192.204865,150.251038 
	C192.501511,150.246780 192.578705,150.475235 192.655899,150.703690 
	C192.432404,150.630386 192.208923,150.557068 192.204865,150.251038 
z"/>
</svg>