<?xml version="1.0" standalone="no"?>
<!DOCTYPE svg PUBLIC "-//W3C//DTD SVG 20010904//EN"
 "http://www.w3.org/TR/2001/REC-SVG-20010904/DTD/svg10.dtd">
<svg version="1.0" xmlns="http://www.w3.org/2000/svg"
 width="512.000000pt" height="512.000000pt" viewBox="0 0 512.000000 512.000000"
 preserveAspectRatio="xMidYMid meet">

<g transform="translate(0.000000,512.000000) scale(0.100000,-0.100000)"
fill="#000000" stroke="none">
<path d="M598 4781 c-31 -10 -72 -28 -92 -40 -56 -35 -133 -126 -158 -189 -23
-57 -23 -58 -23 -542 l0 -485 23 -43 c47 -88 161 -137 266 -113 69 15 129 58
158 113 23 42 23 49 26 440 l3 397 397 3 c391 3 398 3 440 26 88 47 137 161
113 266 -15 69 -58 129 -113 158 -43 23 -45 23 -513 25 -432 2 -475 1 -527
-16z"/>
<path d="M3530 4791 c-86 -27 -141 -87 -161 -177 -24 -105 25 -219 113 -266
42 -23 49 -23 440 -26 l397 -3 3 -397 c3 -391 3 -398 26 -440 29 -55 89 -98
158 -113 105 -24 219 25 266 113 l23 43 0 485 0 485 -24 60 c-33 83 -133 183
-216 216 l-60 24 -470 2 c-258 1 -481 -2 -495 -6z"/>
<path d="M490 2791 c-86 -26 -141 -87 -161 -177 -24 -105 25 -219 113 -266
l43 -23 2075 0 2075 0 43 23 c88 47 137 161 113 266 -15 69 -58 129 -113 158
l-43 23 -2060 2 c-1133 1 -2071 -2 -2085 -6z"/>
<path d="M482 1745 c-58 -18 -108 -58 -135 -108 -22 -42 -22 -44 -22 -527 l0
-485 24 -60 c33 -83 133 -183 216 -216 l60 -24 485 0 485 0 43 23 c55 29 98
89 113 158 24 105 -25 219 -113 266 -42 23 -49 23 -440 26 l-397 3 -3 397 c-3
389 -3 398 -25 439 -28 52 -77 90 -139 109 -57 17 -95 17 -152 -1z"/>
<path d="M4482 1745 c-58 -18 -108 -58 -135 -108 -22 -41 -22 -50 -25 -439
l-3 -397 -397 -3 c-391 -3 -398 -3 -440 -26 -88 -47 -137 -161 -113 -266 15
-69 58 -129 113 -158 l43 -23 485 0 485 0 60 24 c44 18 78 42 126 90 48 48 72
82 90 126 l24 60 0 485 c0 483 0 485 -22 527 -28 52 -77 90 -139 109 -57 17
-95 17 -152 -1z"/>
</g>
</svg>
